# xmcd
#
# Track frame offsets:
#	150
#	12148
#	25177
#	44402
#	57720
#	70227
#	83493
#	95786
#	109658
#	129251
#	145459
#	160697
#	171593
#	182507
#	195553
#	209437
#	224722
#	236339
#	249291
#	261649
#	276754
#	291058
#	307058
#	317949
#	331898
#
# Disc length: 4595 seconds
#
# Revision: 1
# Processed by: cddbd v1.5.2PL0 Copyright (c) Steve Scherf et al.
# Submitted via: audiograbber 1.83.01
#
DISCID=7d11f119
DTITLE=JOSÉ ORLANDO - AO VIVO
DYEAR=2015
DGENRE=BREGA
TTITLE0=SELFIE DO AMOR
TTITLE1=PISTOLEIRO DO AMOR
TTITLE2=POURT-POURRI-1
TTITLE3=TÍTULOS ROMÂNTICOS
TTITLE4=O ANDARILHO
TTITLE5=GUERRA E PAZ
TTITLE6=LOIRINHA
TTITLE7=TENHO PENA DE VOCÊ
TTITLE8=POURT-POURRI-2
TTITLE9=POURT-POURRI-3
TTITLE10=QUEREM ME ROUBAR
TTITLE11=SE ELA ME AMA
TTITLE12=RUMBA LOUCA
TTITLE13=SURRA DE AMOR
TTITLE14=DÓI CORAÇÃO
TTITLE15=SARA
TTITLE16=SINA
TTITLE17=SEU HERÓI
TTITLE18=MARIA, MARIAZINHA
TTITLE19=DECISÃO
TTITLE20=VADIAR
TTITLE21=ABRAÇANDO VOCÊ
TTITLE22=PRINCESA
TTITLE23=AMERICANA
TTITLE24=EU QUERO É NAMORAR
EXTD=
EXTT0=
EXTT1=
EXTT2=
EXTT3=
EXTT4=
EXTT5=
EXTT6=
EXTT7=
EXTT8=
EXTT9=
EXTT10=
EXTT11=
EXTT12=
EXTT13=
EXTT14=
EXTT15=
EXTT16=
EXTT17=
EXTT18=
EXTT19=
EXTT20=
EXTT21=
EXTT22=
EXTT23=
EXTT24=
PLAYORDER=
